<?xml version="1.0" encoding="UTF-8"?>
<svg xmlns="http://www.w3.org/2000/svg" xmlns:xlink="http://www.w3.org/1999/xlink" viewBox="0 0 1052.57 417.37">
  <defs>
    <style>
      .cls-1 {
        fill: url(#_무제_그라디언트_34);
      }

      .cls-2 {
        fill: url(#_무제_그라디언트_41-2);
      }

      .cls-3 {
        isolation: isolate;
      }

      .cls-4 {
        fill: #515151;
      }

      .cls-5 {
        fill: url(#_무제_그라디언트_34-2);
      }

      .cls-6 {
        fill: url(#_무제_그라디언트_41);
      }

      .cls-7 {
        fill: url(#linear-gradient);
        mix-blend-mode: multiply;
        opacity: .5;
      }

      .cls-8 {
        fill: url(#_무제_그라디언트_139);
      }
    </style>
    <linearGradient id="_무제_그라디언트_139" data-name="무제 그라디언트 139" x1="-9.99" y1="325.87" x2="336.81" y2="14.82" gradientUnits="userSpaceOnUse">
      <stop offset="0" stop-color="#92fe9d"/>
      <stop offset=".38" stop-color="#f9f586"/>
      <stop offset="1" stop-color="#00c9ff"/>
    </linearGradient>
    <linearGradient id="_무제_그라디언트_34" data-name="무제 그라디언트 34" x1="161.98" y1="270.88" x2="160.39" y2="397.6" gradientUnits="userSpaceOnUse">
      <stop offset="0" stop-color="#2af598"/>
      <stop offset="1" stop-color="#009efd"/>
    </linearGradient>
    <linearGradient id="linear-gradient" x1="119.26" y1="253.89" x2="61.16" y2="359.66" gradientUnits="userSpaceOnUse">
      <stop offset="0" stop-color="#fff"/>
      <stop offset="1" stop-color="#000"/>
    </linearGradient>
    <linearGradient id="_무제_그라디언트_41" data-name="무제 그라디언트 41" x1="106.6" y1="216.69" x2="326.9" y2="64.22" gradientUnits="userSpaceOnUse">
      <stop offset="0" stop-color="#2af598"/>
      <stop offset=".18" stop-color="#25eba2"/>
      <stop offset=".49" stop-color="#19d2c0"/>
      <stop offset=".89" stop-color="#05a9ef"/>
      <stop offset="1" stop-color="#009efd"/>
    </linearGradient>
    <linearGradient id="_무제_그라디언트_34-2" data-name="무제 그라디언트 34" x1="267.25" y1="150.12" x2="140.93" y2="198.19" xlink:href="#_무제_그라디언트_34"/>
    <linearGradient id="_무제_그라디언트_41-2" data-name="무제 그라디언트 41" x1="217.47" y1="395.51" x2="127.67" y2="339.3" xlink:href="#_무제_그라디언트_41"/>
  </defs>
  <g class="cls-3">
    <g id="Layer_1" data-name="Layer 1">
      <g>
        <path class="cls-8" d="M276.13,137.67s15.05,77.1-55.27,105.3c-37.87,15.18-82.04,13.6-114.99,36.11-24.91,16.96-42.27,42.92-42.79,88.27C15.02,321.72,2.68,244.25,26.42,183.79,76.45,56.27,219.48,100.35,276.69,11.56c0,0,33.1,76.17-12.93,108.46-40.49,28.39-93.69,24.6-127.71,53.32-11.15,9.39-19.4,20.42-18.47,25.93,0,0,22.35-23.83,83.86-31.5,24.48-3.08,50.86-13.39,74.69-30.11Z"/>
        <path class="cls-1" d="M258.21,386.37c-89.84,35.01-154.95,19.15-195.13-19.03.52-45.35,17.89-71.3,42.79-88.27,12.9,101.84,152.34,107.29,152.34,107.29Z"/>
        <path class="cls-7" d="M108.88,294.1c-1.31-4.77-2.33-9.76-3-15.03-24.91,16.96-42.27,42.92-42.79,88.27,0,0,13.8-53,45.79-73.24Z"/>
        <path class="cls-6" d="M76.48,178.34c59.19-85.81,190.68-46.48,200.21-166.78C219.48,100.35,76.45,56.27,26.42,183.79c-23.74,60.47-11.39,137.93,36.67,183.55,0,0-39.69-106,13.4-189Z"/>
        <path class="cls-5" d="M117.78,199.07c-.07.07-.13.14-.2.2,77.25,1.86,132.11-21.73,158.56-61.61-23.83,16.72-50.21,27.03-74.69,30.11-58.29,7.26-81.4,29.03-83.66,31.29Z"/>
        <path class="cls-2" d="M258.21,386.37s-125.37-4.91-149.34-92.26h0s.45,88.48,75.05,110.79c22.53-2.11,47.29-8,74.29-18.53Z"/>
      </g>
      <g>
        <path class="cls-4" d="M404.17,204.16h-7.85v-20.77c0-5.59,2.42-10.39,7.25-14.38,2-1.65,4.17-2.94,6.49-3.91,3.3-1.38,6.93-2.08,10.9-2.08h15.73c22.87,0,41.41-17.09,41.49-38.19v-.16h-82.98v.02s0,.04,0,.06c-2.79.17-5.48.67-8.06,1.52-3.55.8-6.77,2.14-9.66,3.99-5.4,3.02-10.04,6.92-13.93,11.65-3.3,4.02-6.07,8.66-8.29,13.91-.97,2.4-1.77,4.79-2.41,7.19-.33,1.34-.65,2.27-.97,2.8-1.29,5.33-1.93,10.79-1.93,16.38v141.02h46.38v-80.7h49.34c22.87,0,41.41-17.09,41.49-38.19v-.16h-82.98Z"/>
        <path class="cls-4" d="M710.77,136.25c-12.5-7.72-27.53-11.58-45.08-11.58-16.37,0-30.65,3.46-42.85,10.39-12.2-6.92-26.33-10.39-42.4-10.39-17.56,0-32.58,3.86-45.08,11.58-12.5,7.73-18.9,17.05-19.19,27.96v118.65c0,22.06,17.88,39.95,39.95,39.95h2.9v-147.41c0-1.6.45-2.93,1.34-4,5.06-5.32,11.45-7.99,19.19-7.99,9.22,0,16.21,3.59,20.98,10.79.59,1.07.89,2.14.89,3.2v105.46c0,22.06,17.88,39.95,39.95,39.95h2.9v-145.41c0-1.33.45-2.4,1.34-3.2,4.76-7.19,11.75-10.79,20.98-10.79,7.73,0,13.98,2.66,18.75,7.99,1.19,1.07,1.79,2.4,1.79,4v100.48c0,25.91,17.59,46.92,39.29,46.92h3.56v-158.59c-.3-10.92-6.7-20.24-19.19-27.96Z"/>
        <path class="cls-4" d="M886.18,253.94v-61.59c.08-1.27.14-2.55.14-3.84,0-1.83-.1-3.63-.25-5.41v-58.43h-64.42c-3.65,0-7.23.32-10.71.89v.2c-29.57,5.49-51.97,31.4-51.97,62.56v65.63c-.15,1.79-.24,3.59-.24,5.42s.09,3.63.24,5.41v58.43h63.6c33.44,0,60.85-25.71,63.61-58.43.15-1.79.24-3.59.24-5.41s-.09-3.63-.24-5.42ZM849.88,180.3v87.34s-.07,0-.11,0c.07.56.11,1.13.11,1.71v.34c-.01,1.26-.18,2.49-.48,3.69-.57,2.3-1.65,4.45-3.14,6.41-4.61,6.08-13.16,10.19-23,10.28-.11,0-.22,0-.33,0h-26.97v-108.05c0-.05,0-.1.01-.15.06-6.63,4.25-12.49,10.69-16.22,1.04-.6,2.13-1.16,3.28-1.65,3.76-1.58,8.05-2.49,12.63-2.54.13,0,.27,0,.4,0h26.9v18.83Z"/>
        <path class="cls-4" d="M1016.9,218.28c-9.96-8.8-22.84-14.12-36.92-14.12h-3.82s-.02,0-.03,0c-3.01,0-5.86-.75-8.39-2.04-3.51-1.78-6.43-4.63-8.34-8.16-.07-.13-.14-.25-.21-.38-1.16-2.26-1.91-4.77-2.16-7.43-.06-.64-.09-1.29-.09-1.94,0-2.16.34-4.23.95-6.18.35-1.11.78-2.18,1.31-3.2,1.31-2.56,3.16-4.77,5.37-6.51,2.17-1.71,4.69-2.96,7.44-3.59,1.34-.31,2.73-.48,4.16-.48.22,0,.44.03.66.03,0-.01,0-.02-.01-.03.68,0,1.35-.02,2.02-.04,14.2-.32,27.16-4,37.32-9.91.84-.49,1.66-1,2.46-1.52,11-7.13,18.2-17.03,19.28-28.11h-67.8c-31.55,0-57.13,26.65-57.13,59.52,0,18.2,7.85,34.49,20.21,45.4,9.96,8.8,22.84,14.12,36.93,14.12h8.15c.19,0,.37.02.56.03,2.31.07,4.51.56,6.55,1.42.52.31,1.02.63,1.5.96,6.44,4.37,9.67,9.96,9.67,16.77,0,3.75-.64,7.15-1.9,10.19-.22.54-.46,1.07-.73,1.59-3.25,4.93-8.59,8.23-14.69,8.55h-66.24v39.88h.04s0,.07,0,.11h66.99c1.1,0,2.2-.04,3.29-.11.54-.03,1.08-.07,1.62-.11,10.46-.93,20.11-4.8,28.2-10.8,14.54-10.79,24.03-28.48,24.03-48.5,0-18.2-7.85-34.49-20.21-45.4Z"/>
      </g>
    </g>
  </g>
</svg>