<?xml version="1.0" encoding="UTF-8"?>
<svg xmlns="http://www.w3.org/2000/svg" xmlns:xlink="http://www.w3.org/1999/xlink" viewBox="0 0 1052.57 465.49">
  <defs>
    <style>
      .cls-1 {
        fill: url(#_무제_그라디언트_34);
      }

      .cls-2 {
        fill: url(#_무제_그라디언트_41-2);
      }

      .cls-3 {
        fill: #282828;
        font-family: Pretendard-ExtraLight-KSCpc-EUC-H, Pretendard;
        font-size: 22.02px;
        font-weight: 200;
      }

      .cls-4 {
        letter-spacing: .38em;
      }

      .cls-5 {
        isolation: isolate;
      }

      .cls-6 {
        letter-spacing: .39em;
      }

      .cls-7 {
        letter-spacing: .4em;
      }

      .cls-8 {
        fill: #515151;
      }

      .cls-9 {
        fill: url(#_무제_그라디언트_34-2);
      }

      .cls-10 {
        letter-spacing: .39em;
      }

      .cls-11 {
        letter-spacing: .4em;
      }

      .cls-12 {
        fill: url(#_무제_그라디언트_41);
      }

      .cls-13 {
        fill: url(#linear-gradient);
        mix-blend-mode: multiply;
        opacity: .5;
      }

      .cls-14 {
        fill: url(#_무제_그라디언트_139);
      }
    </style>
    <linearGradient id="_무제_그라디언트_139" data-name="무제 그라디언트 139" x1="10.47" y1="380.86" x2="377.62" y2="51.56" gradientUnits="userSpaceOnUse">
      <stop offset="0" stop-color="#92fe9d"/>
      <stop offset=".38" stop-color="#f9f586"/>
      <stop offset="1" stop-color="#00c9ff"/>
    </linearGradient>
    <linearGradient id="_무제_그라디언트_34" data-name="무제 그라디언트 34" x1="192.53" y1="322.64" x2="190.85" y2="456.8" gradientUnits="userSpaceOnUse">
      <stop offset="0" stop-color="#2af598"/>
      <stop offset="1" stop-color="#009efd"/>
    </linearGradient>
    <linearGradient id="linear-gradient" x1="147.31" y1="304.65" x2="85.8" y2="416.63" gradientUnits="userSpaceOnUse">
      <stop offset="0" stop-color="#fff"/>
      <stop offset="1" stop-color="#000"/>
    </linearGradient>
    <linearGradient id="_무제_그라디언트_41" data-name="무제 그라디언트 41" x1="133.91" y1="265.27" x2="367.13" y2="103.86" gradientUnits="userSpaceOnUse">
      <stop offset="0" stop-color="#2af598"/>
      <stop offset=".18" stop-color="#25eba2"/>
      <stop offset=".49" stop-color="#19d2c0"/>
      <stop offset=".89" stop-color="#05a9ef"/>
      <stop offset="1" stop-color="#009efd"/>
    </linearGradient>
    <linearGradient id="_무제_그라디언트_34-2" data-name="무제 그라디언트 34" x1="303.98" y1="194.8" x2="170.25" y2="245.69" xlink:href="#_무제_그라디언트_34"/>
    <linearGradient id="_무제_그라디언트_41-2" data-name="무제 그라디언트 41" x1="251.28" y1="454.58" x2="156.21" y2="395.08" xlink:href="#_무제_그라디언트_41"/>
  </defs>
  <g class="cls-5">
    <g id="Layer_1" data-name="Layer 1">
      <g>
        <path class="cls-14" d="M313.38,181.62s15.93,81.62-58.51,111.48c-40.09,16.07-86.85,14.4-121.73,38.23-26.37,17.96-44.75,45.43-45.3,93.45-50.88-48.3-63.95-130.31-38.82-194.32C101.98,95.44,253.41,142.11,313.97,48.12c0,0,35.04,80.64-13.69,114.83-42.86,30.05-99.18,26.04-135.2,56.45-11.8,9.94-20.53,21.61-19.55,27.45,0,0,23.66-25.23,88.78-33.34,25.91-3.26,53.84-14.18,79.07-31.88Z"/>
        <path class="cls-1" d="M294.41,444.91c-95.11,37.06-164.04,20.27-206.58-20.14.55-48.01,18.94-75.49,45.3-93.45,13.66,107.82,161.27,113.59,161.27,113.59Z"/>
        <path class="cls-13" d="M136.32,347.23c-1.38-5.04-2.47-10.33-3.17-15.91-26.37,17.96-44.75,45.44-45.3,93.45,0,0,14.61-56.11,48.48-77.53Z"/>
        <path class="cls-12" d="M102.02,224.68c62.66-90.84,201.87-49.21,211.95-176.56-60.56,94-211.99,47.33-264.95,182.33-25.13,64.01-12.06,146.02,38.82,194.32,0,0-42.02-112.22,14.18-200.09Z"/>
        <path class="cls-9" d="M145.74,246.62c-.07.07-.14.14-.21.22,81.78,1.97,139.86-23,167.86-65.22-25.23,17.7-53.16,28.62-79.07,31.88-61.7,7.69-86.17,30.73-88.57,33.13Z"/>
        <path class="cls-2" d="M294.41,444.91s-132.72-5.2-158.1-97.68h0s.48,93.67,79.45,117.29c23.85-2.23,50.06-8.47,78.65-19.61Z"/>
      </g>
      <g>
        <g>
          <path class="cls-8" d="M431.86,330.15l-28.89,84.32h-76.8L459.56,69.22h112.24l-28.87,345.26h-73.31l8.56-84.32h-46.33ZM485.28,273.02c4.62-40.82,12.26-113.34,15.53-145.73h-2.92c-7.42,26.08-31.12,101.02-46.2,145.73h33.6Z"/>
          <path class="cls-8" d="M653.99,69.22h89.43c61.97,0,87.96,29.28,75.39,87.71l-3.64,16.78c-8.53,38.12-28.25,53.78-52.17,59.84,24.84,10.66,37.72,33.13,29.19,70.21l-5.61,24.89c-13.5,61.02-38.58,85.83-113.92,85.83h-100.56l81.89-345.26ZM655.26,363.58h18.05c26.11,0,32.61-11.14,38.7-38.21l7.44-33.59c5.17-23.79,2.63-35.18-26.69-35.18h-11.95l-25.55,106.98ZM708.67,206.4c21.66,0,29.14-7.22,35.24-34.46l4.51-19.81c4.39-20.78,2-31.49-24.89-31.49h-10.55l-20.17,85.76h15.86Z"/>
          <path class="cls-8" d="M891.92,315.17l-3.56,16.4c-4.62,23.72-1.36,36.28,16.69,36.28,15.59,0,23.39-10.75,28.56-34.08,6.16-28.22.89-45.6-32.05-79.22-39.16-40.06-54.81-62.7-43.36-115.36,11.05-51.18,42.03-75.13,95.4-75.13,84.45,0,90.34,52.47,81,96.46l-1.56,7.3h-69.85l2.98-12.75c4.62-22.65,4.22-38.5-13.52-38.5-11.95,0-19.81,6.43-23.28,24.28-4.86,24.22-.41,35.28,25.95,63.04,51.53,53.93,63.18,81.22,50.81,134.52-13.12,56.17-44.98,81.26-107.48,81.26-72.21,0-94.76-37.59-81-96.4l1.97-8.08h72.29Z"/>
        </g>
        <text class="cls-3" transform="translate(327.29 457.43)"><tspan class="cls-7" x="0" y="0">Fl</tspan><tspan class="cls-6" x="34.18" y="0">e</tspan><tspan class="cls-7" x="54.69" y="0">xible Multi-domainDashboa</tspan><tspan class="cls-4" x="535.16" y="0">r</tspan><tspan class="cls-7" x="550.61" y="0">d Sys</tspan><tspan class="cls-10" x="646.89" y="0">t</tspan><tspan class="cls-11" x="662.77" y="0">em</tspan></text>
      </g>
    </g>
  </g>
</svg>